<?xml version="1.0" standalone="no"?>
<!DOCTYPE svg PUBLIC "-//W3C//DTD SVG 20010904//EN"
 "http://www.w3.org/TR/2001/REC-SVG-20010904/DTD/svg10.dtd">
<svg version="1.0" xmlns="http://www.w3.org/2000/svg"
 width="260.000000pt" height="260.000000pt" viewBox="0 0 260.000000 260.000000"
 preserveAspectRatio="xMidYMid meet">
<metadata>
Created by potrace 1.11, written by Peter Selinger 2001-2013
</metadata>
<g transform="translate(0.000000,260.000000) scale(0.100000,-0.100000)"
fill="#000000" stroke="none">
<path d="M2489 2572 c-13 -15 -46 -54 -74 -87 -27 -33 -54 -65 -60 -71 -20
-22 -109 -126 -127 -150 l-20 -25 -64 57 c-35 30 -64 52 -64 47 0 -4 -12 -21
-28 -38 -15 -16 -54 -61 -87 -100 -33 -38 -64 -75 -70 -81 -23 -26 -63 -73
-110 -129 -27 -33 -65 -77 -84 -97 l-34 -38 -57 50 c-32 28 -60 50 -62 50 -3
0 -27 -27 -55 -59 -49 -59 -51 -59 -74 -44 -13 9 -41 32 -61 51 l-37 35 117
136 c64 75 131 151 147 169 49 55 49 56 -12 107 l-58 47 -43 -49 c-24 -26 -58
-65 -75 -87 -18 -21 -36 -43 -42 -50 -5 -6 -37 -43 -70 -81 -33 -39 -62 -72
-65 -75 -3 -3 -30 -34 -60 -70 -79 -94 -106 -124 -188 -208 -39 -42 -72 -80
-72 -84 0 -16 -17 -7 -75 42 l-58 49 -20 -22 c-10 -12 -34 -39 -52 -60 l-33
-38 -48 42 c-27 23 -52 44 -57 48 -4 4 1 16 10 27 10 10 41 46 68 79 48 58 89
106 110 129 51 56 120 141 120 147 0 3 21 31 46 60 26 30 69 81 97 113 l50 59
-39 32 c-21 18 -45 40 -54 49 -17 17 -35 21 -35 9 0 -5 -15 -24 -33 -43 -17
-20 -45 -51 -60 -70 -16 -19 -63 -71 -105 -116 -79 -82 -90 -95 -177 -199 -27
-33 -52 -62 -55 -65 -3 -3 -32 -36 -65 -75 -33 -38 -62 -72 -65 -75 -3 -3 -28
-32 -55 -65 -28 -33 -52 -62 -55 -65 -5 -5 -90 -104 -150 -174 -14 -16 -44
-50 -67 -75 -23 -25 -43 -49 -43 -52 0 -7 116 -109 125 -109 8 0 94 93 95 103
0 15 18 5 74 -43 l59 -49 32 37 c18 20 42 48 53 61 l19 25 59 -52 59 -53 54
60 54 60 54 -46 c29 -25 53 -51 53 -59 0 -7 -10 -24 -22 -37 -39 -43 -112
-129 -128 -151 -8 -12 -21 -27 -30 -33 -13 -12 -13 -15 4 -28 11 -8 31 -25 45
-37 15 -13 58 -50 96 -83 39 -33 72 -64 73 -68 4 -8 27 16 75 75 12 15 29 28
37 27 8 0 37 -19 64 -43 53 -48 53 -50 1 -108 -16 -18 -59 -66 -95 -107 l-64
-73 44 -40 c81 -70 88 -74 108 -51 9 11 40 47 67 79 28 32 66 77 86 100 l36
42 59 -52 58 -53 -47 -55 c-26 -30 -47 -57 -47 -60 0 -3 33 -33 74 -66 41 -34
93 -79 117 -101 l43 -39 21 27 c11 14 27 33 35 41 8 9 38 42 65 75 91 107 78
102 140 48 51 -44 66 -67 47 -75 -4 -2 -25 -25 -47 -52 l-40 -49 59 -51 58
-52 -46 -56 c-25 -31 -46 -61 -46 -65 0 -5 25 -31 56 -57 l55 -48 -22 -24 -22
-24 114 0 c113 0 116 0 139 28 13 15 49 56 79 92 31 35 67 78 81 94 14 16 30
34 35 40 6 6 33 38 60 71 28 33 52 62 55 65 3 3 32 37 65 75 33 39 62 72 65
75 6 5 91 112 128 159 21 28 22 38 20 146 l-3 115 -79 -92 c-43 -51 -80 -92
-83 -90 -2 1 -16 -12 -31 -30 -15 -18 -29 -35 -32 -38 -3 -3 -32 -36 -65 -75
-33 -38 -62 -72 -65 -75 -3 -3 -27 -32 -55 -65 -27 -33 -54 -63 -59 -67 -5 -3
-33 14 -62 39 -59 51 -59 51 1 118 19 22 35 44 35 50 0 5 -25 33 -55 60 l-55
50 55 60 c30 33 55 64 55 69 0 8 65 90 110 138 14 14 41 46 60 69 19 24 53 63
75 89 22 25 63 72 90 104 28 32 57 66 65 76 58 68 95 115 95 120 0 4 -25 28
-55 54 l-54 46 -36 -42 c-19 -24 -53 -63 -75 -88 -22 -25 -65 -74 -95 -110
-30 -36 -67 -78 -81 -94 l-27 -29 -49 42 c-26 24 -51 49 -55 56 -5 8 11 33 42
66 27 30 49 57 50 61 0 3 -25 28 -55 53 -51 44 -66 68 -47 77 4 2 30 30 57 63
28 33 52 62 55 65 3 3 32 36 65 75 33 38 65 75 70 81 78 86 145 170 145 181 0
4 -25 28 -55 53 -30 25 -55 47 -55 50 0 3 14 21 31 40 17 19 40 46 52 60 73
85 144 168 160 184 11 14 17 36 17 72 0 48 -3 55 -37 83 -21 17 -40 31 -44 31
-3 0 -17 -13 -30 -28z"/>
</g>
</svg>
